<svg width="152" height="150" viewBox="0 0 152 150" fill="none" xmlns="http://www.w3.org/2000/svg">
<g id="mdi:eye-outline">
<path id="Vector" d="M76.1823 56.6521C81.1862 56.6521 85.9851 58.6116 89.5233 62.0996C93.0616 65.5876 95.0494 70.3184 95.0494 75.2512C95.0494 80.1839 93.0616 84.9147 89.5233 88.4027C85.9851 91.8907 81.1862 93.8503 76.1823 93.8503C71.1785 93.8503 66.3796 91.8907 62.8413 88.4027C59.3031 84.9147 57.3153 80.1839 57.3153 75.2512C57.3153 70.3184 59.3031 65.5876 62.8413 62.0996C66.3796 58.6116 71.1785 56.6521 76.1823 56.6521ZM76.1823 28.7534C107.627 28.7534 134.481 48.0345 145.361 75.2512C134.481 102.468 107.627 121.749 76.1823 121.749C44.7373 121.749 17.8832 102.468 7.00317 75.2512C17.8832 48.0345 44.7373 28.7534 76.1823 28.7534ZM20.7132 75.2512C25.7963 85.4826 33.6894 94.1029 43.495 100.132C53.3007 106.161 64.6256 109.358 76.1823 109.358C87.739 109.358 99.0639 106.161 108.87 100.132C118.675 94.1029 126.568 85.4826 131.651 75.2512C126.568 65.0197 118.675 56.3994 108.87 50.3702C99.0639 44.3409 87.739 41.1446 76.1823 41.1446C64.6256 41.1446 53.3007 44.3409 43.495 50.3702C33.6894 56.3994 25.7963 65.0197 20.7132 75.2512Z" fill="#F24E1E"/>
</g>
</svg>
