<svg width="152" height="150" viewBox="0 0 152 150" fill="none" xmlns="http://www.w3.org/2000/svg">
<g id="octicon:goal-24">
<path id="Vector" d="M127.118 42.6469H115.414L86.6983 70.9423C87.6873 73.4271 87.7783 76.1718 86.9559 78.7149C86.1335 81.258 84.4478 83.4444 82.1825 84.9064C79.9171 86.3685 77.2101 87.017 74.5168 86.7429C71.8234 86.4688 69.308 85.2888 67.3933 83.4014C65.4787 81.514 64.2818 79.0342 64.0037 76.3791C63.7257 73.724 64.3835 71.0555 65.8666 68.8223C67.3497 66.5891 69.5676 64.9274 72.1474 64.1167C74.7271 63.306 77.5114 63.3956 80.0319 64.3706L108.741 36.069V24.5313C108.742 22.9875 109.364 21.5069 110.471 20.4147L121.351 9.68926C121.552 9.48891 121.804 9.3466 122.082 9.27776C122.359 9.20891 122.65 9.21614 122.923 9.29868C123.483 9.45987 123.898 9.91865 124.011 10.4828L126.904 24.7483L141.369 27.6002C141.935 27.7118 142.4 28.121 142.564 28.6727C142.646 28.9408 142.654 29.2259 142.585 29.4977C142.516 29.7695 142.374 30.0179 142.174 30.2165L131.287 40.9419C130.74 41.4823 130.09 41.911 129.375 42.2036C128.659 42.4961 127.892 42.6468 127.118 42.6469Z" fill="#FF0000"/>
<path id="Vector_2" d="M16.7646 75.1952C16.7646 90.6101 22.9764 105.394 34.0334 116.294C45.0905 127.194 60.087 133.317 75.7241 133.317C83.4667 133.317 91.1336 131.814 98.2869 128.893C105.44 125.972 111.94 121.691 117.415 116.294C122.89 110.897 127.233 104.489 130.196 97.4376C133.159 90.3859 134.684 82.8279 134.684 75.1952C134.684 69.6279 133.891 64.2465 132.413 59.1566C132.119 57.9879 132.297 56.7524 132.909 55.7101C133.52 54.6679 134.518 53.9001 135.692 53.5684C136.866 53.2366 138.125 53.3668 139.204 53.9315C140.282 54.4962 141.097 55.4514 141.476 56.5961C143.199 62.5106 144.117 68.7475 144.117 75.1952C144.117 112.431 113.496 142.617 75.7241 142.617C37.9523 142.617 7.33105 112.431 7.33105 75.1952C7.33105 37.9598 37.9523 7.77347 75.7241 7.77347C82.1074 7.76727 88.453 8.64143 94.5911 10.3711C95.1896 10.5366 95.749 10.8171 96.2371 11.1964C96.7253 11.5758 97.1326 12.0465 97.4356 12.5815C97.7386 13.1165 97.9313 13.7053 98.0027 14.314C98.0741 14.9227 98.0228 15.5393 97.8516 16.1284C97.6805 16.7174 97.3929 17.2673 97.0055 17.7465C96.618 18.2256 96.1383 18.6246 95.5939 18.9203C95.0496 19.2161 94.4513 19.4029 93.8334 19.47C93.2156 19.537 92.5904 19.483 91.9938 19.3111C86.7028 17.8215 81.2266 17.0682 75.7241 17.073C60.087 17.073 45.0905 23.1966 34.0334 34.0966C22.9764 44.9966 16.7646 59.7802 16.7646 75.1952Z" fill="#FF0000"/>
<path id="Vector_3" d="M45.0652 75.1951C45.0827 79.3013 45.949 83.3609 47.6112 87.1261C49.2735 90.8912 51.6967 94.2828 54.7329 97.094C57.7692 99.9051 61.3548 102.077 65.2708 103.476C69.1868 104.876 73.3511 105.473 77.5094 105.233C81.6677 104.993 85.7327 103.92 89.4563 102.08C93.1798 100.24 96.4838 97.6702 99.1665 94.529C101.849 91.3878 103.854 87.7405 105.059 83.8098C106.264 79.8792 106.644 75.7477 106.175 71.6675C106.043 70.8412 106.141 69.995 106.457 69.2186C106.773 68.4423 107.296 67.7647 107.971 67.2576C108.646 66.7505 109.447 66.4328 110.29 66.3382C111.133 66.2436 111.987 66.3756 112.76 66.7201C114.339 67.4145 115.401 68.8962 115.54 70.5949C116.516 78.7491 114.892 87.0005 110.892 94.2024C106.891 101.404 100.715 107.199 93.22 110.78C85.7251 114.362 77.2846 115.553 69.0715 114.188C60.8584 112.822 53.2809 108.969 47.3921 103.162C41.5049 97.3617 37.5946 89.8992 36.2035 81.8094C34.8123 73.7197 36.0093 65.4037 39.6285 58.0148C43.2476 50.6259 49.1094 44.5303 56.401 40.5734C63.6926 36.6166 72.0526 34.9946 80.3214 35.9324C80.9465 35.9896 81.5537 36.1692 82.1075 36.4607C82.6612 36.7523 83.1504 37.1498 83.5463 37.6301C83.9422 38.1104 84.2368 38.6638 84.4129 39.2578C84.5891 39.8518 84.6431 40.4745 84.572 41.0894C84.5008 41.7043 84.3058 42.299 83.9985 42.8386C83.6912 43.3782 83.2777 43.852 82.7822 44.232C82.2867 44.6121 81.7193 44.8908 81.1131 45.0519C80.507 45.2129 79.8743 45.2531 79.2522 45.17C74.957 44.6804 70.6053 45.0919 66.4828 46.3773C62.3603 47.6627 58.5601 49.793 55.3316 52.6284C52.1032 55.4638 49.5195 58.9402 47.7502 62.8294C45.9808 66.7186 45.0658 70.9327 45.0652 75.1951Z" fill="#FF0000"/>
</g>
</svg>
