<svg width="150" height="150" viewBox="0 0 150 150" fill="none" xmlns="http://www.w3.org/2000/svg">
<g id="openmoji:youtube">
<path id="Vector" d="M133.071 45.6377C132.386 43.0586 131.036 40.7048 129.155 38.8119C127.274 36.919 124.929 35.5535 122.354 34.8522C112.902 32.3022 75 32.3022 75 32.3022C75 32.3022 37.098 32.3022 27.6459 34.8522C25.0713 35.5535 22.7261 36.919 20.8453 38.8119C18.9645 40.7048 17.614 43.0586 16.9292 45.6377C14.3959 55.1502 14.3959 75.0002 14.3959 75.0002C14.3959 75.0002 14.3959 94.8502 16.9292 104.365C17.614 106.944 18.9645 109.298 20.8453 111.191C22.7261 113.083 25.0713 114.449 27.6459 115.15C37.098 117.698 75 117.698 75 117.698C75 117.698 112.902 117.698 122.354 115.15C124.929 114.449 127.274 113.083 129.155 111.191C131.036 109.298 132.386 106.944 133.071 104.365C135.604 94.8502 135.604 75.0002 135.604 75.0002C135.604 75.0002 135.604 55.1502 133.071 45.6377Z" fill="#EA5A47"/>
<path id="Vector_2" d="M62.6041 93.0207L94.2833 74.9998L62.6041 56.979V93.0207Z" fill="white"/>
<g id="Group">
<path id="Vector_3" d="M133.071 45.6377C132.386 43.0586 131.036 40.7048 129.155 38.8119C127.274 36.919 124.929 35.5535 122.354 34.8522C112.902 32.3022 75 32.3022 75 32.3022C75 32.3022 37.098 32.3022 27.6459 34.8522C25.0713 35.5535 22.7261 36.919 20.8453 38.8119C18.9645 40.7048 17.614 43.0586 16.9292 45.6377C14.3959 55.1502 14.3959 75.0002 14.3959 75.0002C14.3959 75.0002 14.3959 94.8502 16.9292 104.365C17.614 106.944 18.9645 109.298 20.8453 111.191C22.7261 113.083 25.0713 114.449 27.6459 115.15C37.098 117.698 75 117.698 75 117.698C75 117.698 112.902 117.698 122.354 115.15C124.929 114.449 127.274 113.083 129.155 111.191C131.036 109.298 132.386 106.944 133.071 104.365C135.604 94.8502 135.604 75.0002 135.604 75.0002C135.604 75.0002 135.604 55.1502 133.071 45.6377Z" stroke="black" stroke-width="2" stroke-miterlimit="10"/>
<path id="Vector_4" d="M62.6042 93.0212L94.2834 75.0003L62.6042 56.9795V93.0212Z" stroke="black" stroke-width="2" stroke-miterlimit="10" stroke-linecap="round" stroke-linejoin="round"/>
</g>
</g>
</svg>
